<?xml version="1.0" encoding="utf-8"?>
<!-- Generator: Adobe Illustrator 21.1.0, SVG Export Plug-In . SVG Version: 6.00 Build 0)  -->
<svg version="1.1" id="Layer_1" xmlns="http://www.w3.org/2000/svg" xmlns:xlink="http://www.w3.org/1999/xlink" x="0px" y="0px"
	 viewBox="0 0 81.5 89.2" style="enable-background:new 0 0 81.5 89.2;" xml:space="preserve">
<path d="M81.5,29.9c0-1.4-0.2-2.8-0.6-4.1c-1.3-3.9-3.4-7.1-7.1-9.2C65.4,11.8,57,7,48.6,2.1c-2.3-1.3-4.7-2-7.3-2.1
	c-2.9-0.1-5.6,0.4-8.1,1.9c-8.5,4.9-17,9.7-25.4,14.7c-5,3-7.7,7.5-7.7,13.4C0,39.7,0,49.5,0,59.2c0,1.5,0.2,3,0.7,4.4
	c1.3,3.8,3.5,6.9,7,8.9c8.3,4.8,16.7,9.6,25,14.4c2.2,1.3,4.5,2,7,2.2c3.1,0.2,6-0.3,8.7-1.9c8.4-4.9,16.8-9.8,25.2-14.6
	c2.4-1.3,4.2-3.2,5.5-5.5c1.3-2.2,2.3-4.6,2.3-7.2c0-5.1,0-10.3,0-15.4h0C81.5,39.7,81.5,34.8,81.5,29.9z M37.5,58.7l-0.4,0.4
	c-2.4,2.4-5.7,3.8-9.1,3.8c-3.4,0-6.7-1.3-9.1-3.8c-2.4-2.4-3.8-5.7-3.8-9.1s1.3-6.7,3.8-9.1l6.2-6.2c2.4-2.4,5.7-3.8,9.1-3.8
	s6.7,1.3,9.1,3.8c3.6,3.6,4.7,9,2.9,13.7c-0.5,1.3-1.9,1.9-3.2,1.4c-1.3-0.5-1.9-1.9-1.4-3.2c1.1-2.9,0.4-6.2-1.8-8.4
	c-1.5-1.5-3.5-2.3-5.5-2.3s-4.1,0.8-5.6,2.3l-6.2,6.2c-1.5,1.5-2.3,3.5-2.3,5.6s0.8,4.1,2.3,5.5c1.5,1.5,3.5,2.3,5.6,2.3
	s4.1-0.8,5.5-2.3l0.4-0.4c1-1,2.6-1,3.5,0S38.5,57.7,37.5,58.7z M62.5,48.3l-6.2,6.2c-2.4,2.4-5.7,3.8-9.1,3.8
	c-3.4,0-6.7-1.3-9.1-3.8c-3.6-3.6-4.7-9-2.9-13.7c0.5-1.3,1.9-1.9,3.2-1.4c1.3,0.5,1.9,1.9,1.4,3.2c-1.1,2.9-0.4,6.2,1.8,8.4
	c1.5,1.5,3.5,2.3,5.6,2.3s4.1-0.8,5.6-2.3l6.2-6.2c1.5-1.5,2.3-3.5,2.3-5.6s-0.8-4.1-2.3-5.6c-1.5-1.5-3.5-2.3-5.6-2.3
	c-2.1,0-4.1,0.8-5.6,2.3L47.5,34c-1,1-2.6,1-3.5,0c-1-1-1-2.6,0-3.5l0.4-0.4c2.4-2.4,5.7-3.8,9.1-3.8c0,0,0,0,0,0
	c3.4,0,6.7,1.3,9.1,3.8c2.4,2.4,3.8,5.7,3.8,9.1C66.3,42.6,65,45.8,62.5,48.3z"/>
</svg>
