<?xml version="1.0" encoding="utf-8"?>
<!-- Generator: Adobe Illustrator 21.1.0, SVG Export Plug-In . SVG Version: 6.00 Build 0)  -->
<svg version="1.1" id="Layer_1" xmlns="http://www.w3.org/2000/svg" xmlns:xlink="http://www.w3.org/1999/xlink" x="0px" y="0px"
	 viewBox="0 0 84.1 61.7" style="enable-background:new 0 0 84.1 61.7;" xml:space="preserve">
<style type="text/css">
	.st0{fill:#D5278F;}
</style>
<g>
	<path class="st0" d="M49.9,57.4c-10.6,0.5-39.4,0.7-44.5,0.7c1.2,1.4,1.9,2.5,1.9,2.5c64.2,3.6,62.5-2.5,62.5-2.5s0.4-1.4,1.3-3.6
		C69.1,55.3,61.1,56.9,49.9,57.4z"/>
	<path class="st0" d="M19.2,25.1c0,0.6,0.4,1.2,1.1,1.3c0.1,0,0.1,0,0.2,0c0.5,0,1-0.3,1.2-0.9c0.1-0.3,0.6-1.5,3-2.7
		c2.9-1.4,8.2-4.1,11.6-4.2c0.4,0,0.7-0.2,0.9-0.4c0.2-0.3,0.3-0.6,0.3-1l-0.1-0.5c-0.2-1.5-0.3-2.9-1.5-3.8
		c-0.5-0.4-1.2-0.6-2.1-0.6c-3,0-8.1,2-10.5,3.4c-2.9,1.7-4.6,3.5-4.3,6.9C19.2,23.3,19.2,24.1,19.2,25.1z"/>
	<path class="st0" d="M42.3,29.6c3.8-3.8,15.8-6.1,15.8-6.1l-0.6-1.1c0,0-12.7,0.3-17.6,2.2c-4.9,1.9-16.9,7.8-16.9,7.8l0.2-2.6
		c0,0,7.4-4.5,13.8-7.4c8-3.6,19.5-2.1,19.5-2.1s0.4-1-0.4-1.7c-0.8-0.8-5.9-1.5-10.2-1.2c-6,0.5-9.3,1.9-9.3,1.9s0,0,0-0.1
		c-1.1,0.5-8.8,3.7-11.6,5.3c-3.1,1.7-4.4,2.8-4.9,4.5c-0.3,2.5-0.8,4.4-0.8,4.4s-2.9,1.4-6.8,2.9c-3.9,1.6-5.2,5.7-5.2,5.7
		s15.5-3,24.3-5.3C37.7,35.2,40.2,31.8,42.3,29.6z"/>
	<path class="st0" d="M83.3,22.3c0,0-3.6-1.2-15.4,0.6C56.1,24.6,46.2,27.5,41.3,33c-3,3.3-7.5,5.5-26.1,9c-10.6,2-15,3.1-15.1,4.6
		c-0.2,1.5,0.7,5.1,3.6,8.6c0.3,0.4,0.6,0.7,0.8,1.1c4-0.1,31-0.7,45.5-1.7c14.5-1,21-3.5,21.9-3.8c1.9-5.8,5.1-14,9.6-20.1
		C85.9,24.6,83.3,22.3,83.3,22.3z M62.7,35c-0.2,1.7-1.6,2.9-3,2.6c-1.4-0.2-2.3-1.7-2.1-3.4c0.3-1.7,1.6-2.9,3-2.6
		C62,31.8,62.9,33.3,62.7,35z"/>
	<path class="st0" d="M57.7,1.6l-0.4-1.2c-0.5,0.2-1,0.5-1.5,0.8l0.7,1C56.9,2,57.3,1.8,57.7,1.6z"/>
	<path class="st0" d="M59.6,1.3c0.2,0,0.4,0,0.6,0L60.3,0c-0.2,0-0.5,0-0.8,0c-0.3,0-0.6,0-0.9,0.1l0.2,1.3
		C59.1,1.3,59.3,1.3,59.6,1.3z"/>
	<path class="st0" d="M63.2,1.1c-0.5-0.3-1-0.6-1.5-0.8l-0.4,1.2c0.4,0.1,0.8,0.4,1.2,0.6L63.2,1.1z"/>
	<path class="st0" d="M55.7,3l-0.9-0.9c-0.4,0.4-0.7,0.9-1,1.4l1.1,0.6C55.1,3.7,55.4,3.3,55.7,3z"/>
	<path class="st0" d="M49.1,14.3c-0.5-1.3-0.5-2.7,0-4C49.6,9,50.7,8,51.9,7.4c1.7-0.7,3.7-0.5,5.2,0.7l0.8-1
		c-1-0.8-2.3-1.2-3.5-1.3c0-0.2,0.1-0.4,0.1-0.6l-1.2-0.3c-0.1,0.3-0.1,0.6-0.2,1C52.5,5.9,52,6,51.5,6.3c-1.6,0.7-2.9,1.9-3.5,3.5
		c-0.7,1.6-0.7,3.4,0,5L49.1,14.3z"/>
	<path class="st0" d="M70.8,1.8c-0.5-0.1-1.1-0.2-1.6-0.2l0,1.3c0.5,0,0.9,0.1,1.4,0.1L70.8,1.8z"/>
	<path class="st0" d="M73.6,3.1c-0.5-0.3-0.9-0.6-1.5-0.8l-0.5,1.2c0.4,0.2,0.8,0.4,1.2,0.7L73.6,3.1z"/>
	<path class="st0" d="M75.7,5.2c-0.3-0.5-0.6-0.9-1-1.3l-0.9,0.9c0.3,0.3,0.6,0.7,0.9,1.1L75.7,5.2z"/>
	<path class="st0" d="M75.5,8.3l1.2-0.2c-0.1-0.5-0.3-1.1-0.5-1.6l-1.2,0.5C75.3,7.4,75.4,7.8,75.5,8.3z"/>
	<path class="st0" d="M63.8,5.7l-1-0.7c-0.3,0.5-0.6,0.9-0.8,1.5l1.2,0.5C63.3,6.5,63.6,6.1,63.8,5.7z"/>
	<path class="st0" d="M61.4,9.4h1.3c0-0.5,0.1-0.9,0.1-1.4l-1.2-0.3C61.5,8.3,61.4,8.9,61.4,9.4z"/>
	<path class="st0" d="M63.7,3.9l0.9,0.9c0.3-0.3,0.7-0.6,1.1-0.9l-0.5-0.7l0,0c0-0.1-0.1-0.1-0.1-0.2L65,2.9c0,0,0,0,0,0
		c-0.2-0.3-0.4-0.6-0.7-0.9l-0.9,0.9c0.2,0.2,0.4,0.5,0.6,0.8C63.9,3.8,63.8,3.8,63.7,3.9z"/>
	<path class="st0" d="M68,3l-0.2-1.2c-0.5,0.1-1.1,0.3-1.6,0.5l0.5,1.2C67.1,3.3,67.5,3.1,68,3z"/>
</g>
</svg>
